<svg id="Layer_1" data-name="Layer 1" xmlns="http://www.w3.org/2000/svg" viewBox="0 0 464.05 464.05"><defs><style>.cls-1{opacity:0.38;}.cls-2{fill:#fff;}.cls-3{fill:#4eb96f;}.cls-4,.cls-6{fill:#221f1f;}.cls-4{opacity:0.23;}.cls-5{fill:#af352b;}.cls-7{fill:#717272;}.cls-8{fill:#dddddc;}.cls-9{fill:#616262;}.cls-10{fill:#231f20;}</style></defs><title>camera</title><g class="cls-1"><rect class="cls-2" x="668.04" y="384.04" width="397.12" height="63.92" transform="translate(-524.45 -361.1) rotate(12.46)"/><path class="cls-3" d="M1098,288.78l-30.67,138.84L679.61,342l30.67-138.84a24.41,24.41,0,0,1,29.1-18.57l340.1,75.12A24.42,24.42,0,0,1,1098,288.78Z" transform="translate(-634.58 -183.97)"/><path class="cls-3" d="M665.83,404.38L1053.6,490l-30.67,138.84a24.41,24.41,0,0,1-29.1,18.57l-340.1-75.12a24.4,24.4,0,0,1-18.57-29.1Z" transform="translate(-634.58 -183.97)"/><path class="cls-4" d="M909.43,222.11L823.78,609.88l-170-37.56a24.4,24.4,0,0,1-18.57-29.1l75.12-340.1a24.41,24.41,0,0,1,29.1-18.57Z" transform="translate(-634.58 -183.97)"/><rect class="cls-5" x="860.99" y="170.67" width="31.88" height="397.12" transform="translate(-307.33 961.91) rotate(-77.54)"/><rect class="cls-5" x="840.33" y="264.22" width="31.89" height="397.12" transform="translate(-414.87 1015.1) rotate(-77.54)"/><circle class="cls-5" cx="760.11" cy="238.4" r="22.36" transform="translate(-271.21 745.22) rotate(-77.54)"/><rect class="cls-2" x="1001.88" y="276.11" width="60.3" height="44.72" rx="5.25" ry="5.25" transform="translate(-545.91 -399.55) rotate(12.46)"/><path class="cls-6" d="M1007.21,447.06c17.15-77.66-32.09-153.65-109.55-171.67C820.52,257.45,745,304.4,726,384.94c-18.27,77.4,31.89,154.51,109.55,171.67A144,144,0,0,0,1007.21,447.06Z" transform="translate(-634.58 -183.97)"/><circle class="cls-7" cx="866.6" cy="416" r="96.21" transform="translate(-361.1 988.51) rotate(-77.54)"/><circle class="cls-8" cx="866.6" cy="416" r="86.4" transform="translate(-361.1 988.51) rotate(-77.54)"/><circle class="cls-9" cx="866.6" cy="416" r="59.04" transform="translate(-361.1 988.51) rotate(-77.54)"/><circle class="cls-10" cx="866.6" cy="416" r="25.74" transform="translate(-361.1 988.51) rotate(-77.54)"/></g></svg>