<svg id="Layer_1" data-name="Layer 1" xmlns="http://www.w3.org/2000/svg" viewBox="0 0 328.63 328.63"><defs><style>.cls-1{opacity:0.38;}.cls-2{fill:#e47e26;}.cls-3{fill:#fff;}.cls-4{fill:#fdf492;}.cls-5{fill:#221f1f;}.cls-6{fill:#e54d3b;}.cls-7{fill:#010101;opacity:0.2;}</style></defs><title>clock</title><g class="cls-1"><rect class="cls-2" x="195.87" y="237.19" width="254.83" height="254.83" rx="22.84" ry="22.84" transform="translate(50.46 -309.49) rotate(28.05)"/><circle class="cls-3" cx="323.28" cy="364.61" r="100.44" transform="translate(-309.49 278.17) rotate(-61.95)"/><circle class="cls-4" cx="323.28" cy="364.61" r="94.79" transform="translate(-309.49 278.17) rotate(-61.95)"/><circle class="cls-4" cx="376.85" cy="264.07" r="6.52" transform="translate(-192.38 272.19) rotate(-61.95)"/><circle class="cls-4" cx="269.71" cy="465.15" r="6.52" transform="translate(-426.6 284.15) rotate(-61.95)"/><circle class="cls-4" cx="223.13" cy="311.24" r="6.52" transform="translate(-315.45 161.51) rotate(-61.95)"/><rect class="cls-5" x="300.86" y="352.21" width="7.39" height="45.22" rx="2.12" ry="2.12" transform="translate(364.32 -256.05) rotate(66.03)"/><rect class="cls-5" x="357.11" y="336.4" width="7.39" height="72.56" rx="2.12" ry="2.12" transform="translate(637.48 -109.2) rotate(101.2)"/><rect class="cls-6" x="321.57" y="290.41" width="1.96" height="75.32" rx="0.56" ry="0.56" transform="translate(-181.35 -176.67) rotate(-4.05)"/><circle class="cls-4" cx="423.44" cy="417.97" r="6.52" transform="translate(-303.53 394.83) rotate(-61.95)"/><circle class="cls-3" cx="323.28" cy="364.61" r="15.87" transform="translate(-309.49 278.17) rotate(-61.95)"/><path class="cls-7" d="M383.2,252.16l-88.17-47a27.51,27.51,0,0,0-37.22,11.34l-94,176.34a27.51,27.51,0,0,0,11.34,37.22l88.17,47Z" transform="translate(-158.97 -200.29)"/></g></svg>